<svg width="97" height="151" viewBox="0 0 97 151" fill="none" xmlns="http://www.w3.org/2000/svg">
<rect x="1" y="9" width="84" height="120" rx="2" fill="#FDE29A" stroke="#9A7719"/>
<path d="M6.11797 15.1226C5.21725 13.7947 6.16853 12 7.77316 12H80C81.1046 12 82 12.8954 82 14V120.488C82 122.459 79.4509 123.242 78.3448 121.611L6.11797 15.1226Z" fill="#F8D372"/>
<rect x="11" y="30" width="64" height="2" rx="1" fill="#9A7719"/>
<rect x="11" y="90" width="64" height="2" rx="1" fill="#9A7719"/>
<rect x="11" y="97" width="64" height="2" rx="1" fill="#9A7719"/>
<rect x="11" y="40" width="34" height="2" rx="1" fill="#9A7719"/>
<rect x="11" y="50" width="44" height="2" rx="1" fill="#9A7719"/>
<rect x="11" y="60" width="24" height="2" rx="1" fill="#9A7719"/>
<rect x="11" y="70" width="58" height="2" rx="1" fill="#9A7719"/>
<circle cx="81" cy="16" r="15" fill="#FDE29A" stroke="#9A7719"/>
<path d="M74.8511 17.4479L79.418 21.7449L87.5571 11.1233" stroke="#9A7719" stroke-width="2" stroke-linecap="round" stroke-linejoin="round"/>
<ellipse cx="43.9753" cy="146" rx="34.1852" ry="5" fill="#E8E8EE"/>
</svg>
