<svg width="124" height="147" viewBox="0 0 124 147" fill="none" xmlns="http://www.w3.org/2000/svg">
<g id="Group 15">
<g id="Group 11">
<path id="Rectangle" d="M1 7C1 3.68629 3.68629 1 7 1H117C120.314 1 123 3.68629 123 7V117C123 120.314 120.314 123 117 123H7C3.68629 123 1 120.314 1 117V7Z" fill="#FDE29A" stroke="#9A7719"/>
<path id="Combined Shape" fill-rule="evenodd" clip-rule="evenodd" d="M111 118.256C114.314 118.256 117 115.569 117 112.256V92.2556C117 91.8307 116.956 91.4162 116.872 91.0163L113.25 108.474C112.673 111.259 110.219 113.256 107.376 113.256L16.2213 113.256C13.5641 113.256 11.2235 111.508 10.4685 108.96L7 97.2556V112.256C7 115.569 9.68629 118.256 13 118.256L111 118.256Z" fill="#F8D372"/>
<path id="Combined Shape_2" fill-rule="evenodd" clip-rule="evenodd" d="M13 5C9.68629 5 7 7.68629 7 11L7 31C7 31.4249 7.04416 31.8394 7.12815 32.2394L10.7496 14.7813C11.3272 11.9966 13.7805 10 16.6245 10L107.779 10C110.436 10 112.777 11.7476 113.531 14.2953L117 26V11C117 7.68629 114.314 5 111 5L13 5Z" fill="#F8D372"/>
<path id="Shape" fill-rule="evenodd" clip-rule="evenodd" d="M35.2141 73.184C34.5448 70.4276 35.4719 67.5282 37.6163 65.6714C41.3073 62.484 48.1309 56.5908 52.9827 52.4006C55.1685 50.5128 56.9541 48.9707 57.8727 48.1773C58.2691 47.8277 58.3985 47.2642 58.1942 46.7766C57.1122 44.0505 56.8084 41.0774 57.3166 38.1888C58.4559 31.8623 63.2617 26.8269 69.5281 25.3936C71.385 24.9698 73.3035 24.8874 75.1899 25.1505C75.6541 25.2167 76.0404 25.5408 76.1864 25.9863C76.3324 26.4319 76.2128 26.9217 75.8778 27.2497L67.4016 35.5406C67.0861 35.849 66.9606 36.3031 67.0729 36.7297L69.0092 44.0876C69.1218 44.5151 69.4556 44.849 69.8831 44.9616L77.2413 46.8979C77.6678 47.01 78.1217 46.8846 78.4302 46.5695L86.7217 38.095C87.0498 37.7603 87.5395 37.6407 87.985 37.7867C88.4304 37.9327 88.7544 38.3189 88.8207 38.783C89.0832 40.6657 89.0013 42.5805 88.5792 44.434C87.1494 50.7019 82.1157 55.5108 75.789 56.653C72.8983 57.1629 69.9227 56.8594 67.1944 55.7765C66.7052 55.5737 66.1412 55.7042 65.7908 56.1012L48.3043 76.349C46.4496 78.4952 43.5511 79.4251 40.794 78.7585C38.0369 78.0919 35.8834 75.9405 35.2141 73.184ZM38.9583 73.0201C39.5279 74.3953 40.8698 75.2919 42.3583 75.2918V75.2923C43.3344 75.2924 44.2705 74.9046 44.9606 74.2144C45.6507 73.5241 46.0384 72.588 46.0382 71.6119C46.0383 70.1234 45.1417 68.7815 43.7665 68.2119C42.3914 67.6422 40.8085 67.9571 39.756 69.0096C38.7035 70.0621 38.3886 71.645 38.9583 73.0201Z" fill="#EFB41F"/>
</g>
<ellipse id="Oval" cx="64.9753" cy="141.303" rx="34.1852" ry="5.69753" fill="#E8E8EE"/>
</g>
</svg>
