<svg width="116" height="143" viewBox="0 0 116 143" fill="none" xmlns="http://www.w3.org/2000/svg">
<circle cx="57.9753" cy="64.1111" r="56.9753" fill="#FDE29A" stroke="#9A7719"/>
<circle cx="57.9753" cy="57.9753" r="56.9753" fill="#FDE29A" stroke="#9A7719"/>
<circle cx="57.9753" cy="57.9753" r="48.7099" fill="#FDD66F" stroke="#9A7719"/>
<path fill-rule="evenodd" clip-rule="evenodd" d="M99.8707 60.2065C99.989 58.8942 100.049 57.5652 100.049 56.2222C100.049 32.0171 80.4273 12.395 56.2222 12.395C32.0172 12.395 12.3951 32.0171 12.3951 56.2222C12.3951 57.5652 12.4555 58.8942 12.5737 60.2065C14.5867 37.8686 33.3602 20.3636 56.2222 20.3636C79.0843 20.3636 97.8578 37.8686 99.8707 60.2065Z" fill="#F5CC5F"/>
<rect x="55.3457" y="116.704" width="0.876543" height="3.50617" rx="0.438272" fill="#9A7719"/>
<rect x="57.9753" y="116.704" width="0.876543" height="3.50617" rx="0.438272" fill="#9A7719"/>
<rect x="60.6049" y="116.704" width="0.876543" height="3.50617" rx="0.438272" fill="#9A7719"/>
<path fill-rule="evenodd" clip-rule="evenodd" d="M11.0802 93.037C10.8382 93.037 10.642 93.2332 10.642 93.4753C10.642 93.7173 10.8382 93.9135 11.0802 93.9135C11.3223 93.9135 11.5185 93.7173 11.5185 93.4753C11.5185 93.2332 11.3223 93.037 11.0802 93.037ZM13.2716 96.1049C13.2716 95.8628 13.4678 95.6666 13.7099 95.6666C13.9519 95.6666 14.1481 95.8628 14.1481 96.1049V96.9814C14.1481 97.2235 13.9519 97.4197 13.7099 97.4197C13.4678 97.4197 13.2716 97.2235 13.2716 96.9814V96.1049ZM16.3395 99.1728C16.0974 99.1728 15.9012 99.369 15.9012 99.6111V100.488C15.9012 100.73 16.0974 100.926 16.3395 100.926C16.5815 100.926 16.7778 100.73 16.7778 100.488V99.6111C16.7778 99.369 16.5815 99.1728 16.3395 99.1728ZM18.5309 102.241C18.5309 101.999 18.7271 101.802 18.9691 101.802C19.2112 101.802 19.4074 101.999 19.4074 102.241V103.117C19.4074 103.359 19.2112 103.556 18.9691 103.556C18.7271 103.556 18.5309 103.359 18.5309 103.117V102.241ZM21.5988 103.556C21.3567 103.556 21.1605 103.752 21.1605 103.994V105.747C21.1605 105.989 21.3567 106.185 21.5988 106.185C21.8408 106.185 22.037 105.989 22.037 105.747V103.994C22.037 103.752 21.8408 103.556 21.5988 103.556ZM23.7901 105.747C23.7901 105.505 23.9863 105.309 24.2284 105.309C24.4704 105.309 24.6667 105.505 24.6667 105.747V107.5C24.6667 107.742 24.4704 107.938 24.2284 107.938C23.9863 107.938 23.7901 107.742 23.7901 107.5V105.747ZM26.858 107.062C26.616 107.062 26.4197 107.258 26.4197 107.5V109.253C26.4197 109.495 26.616 109.691 26.858 109.691C27.1001 109.691 27.2963 109.495 27.2963 109.253V107.5C27.2963 107.258 27.1001 107.062 26.858 107.062ZM29.0494 109.253C29.0494 109.011 29.2456 108.815 29.4876 108.815C29.7297 108.815 29.9259 109.011 29.9259 109.253V111.006C29.9259 111.248 29.7297 111.444 29.4876 111.444C29.2456 111.444 29.0494 111.248 29.0494 111.006V109.253ZM32.1173 110.568C31.8752 110.568 31.679 110.764 31.679 111.006V112.759C31.679 113.001 31.8752 113.197 32.1173 113.197C32.3593 113.197 32.5555 113.001 32.5555 112.759V111.006C32.5555 110.764 32.3593 110.568 32.1173 110.568ZM34.3086 111.883C34.3086 111.641 34.5049 111.444 34.7469 111.444C34.989 111.444 35.1852 111.641 35.1852 111.883V114.512C35.1852 114.754 34.989 114.951 34.7469 114.951C34.5049 114.951 34.3086 114.754 34.3086 114.512V111.883ZM37.3765 112.321C37.1345 112.321 36.9383 112.517 36.9383 112.759V115.389C36.9383 115.631 37.1345 115.827 37.3765 115.827C37.6186 115.827 37.8148 115.631 37.8148 115.389V112.759C37.8148 112.517 37.6186 112.321 37.3765 112.321ZM39.5679 113.636C39.5679 113.394 39.7641 113.197 40.0062 113.197C40.2482 113.197 40.4444 113.394 40.4444 113.636V116.265C40.4444 116.507 40.2482 116.704 40.0062 116.704C39.7641 116.704 39.5679 116.507 39.5679 116.265V113.636ZM42.6358 114.074C42.3937 114.074 42.1975 114.27 42.1975 114.512V117.142C42.1975 117.384 42.3937 117.58 42.6358 117.58C42.8778 117.58 43.0741 117.384 43.0741 117.142V114.512C43.0741 114.27 42.8778 114.074 42.6358 114.074ZM44.8272 115.389C44.8272 115.147 45.0234 114.951 45.2654 114.951C45.5075 114.951 45.7037 115.147 45.7037 115.389V118.018C45.7037 118.261 45.5075 118.457 45.2654 118.457C45.0234 118.457 44.8272 118.261 44.8272 118.018V115.389ZM47.8951 115.827C47.653 115.827 47.4568 116.023 47.4568 116.265V118.895C47.4568 119.137 47.653 119.333 47.8951 119.333C48.1371 119.333 48.3333 119.137 48.3333 118.895V116.265C48.3333 116.023 48.1371 115.827 47.8951 115.827ZM50.0864 117.142C50.0864 116.9 50.2826 116.704 50.5247 116.704C50.7667 116.704 50.963 116.9 50.963 117.142V118.895C50.963 119.137 50.7667 119.333 50.5247 119.333C50.2826 119.333 50.0864 119.137 50.0864 118.895V117.142ZM52.716 117.142C52.716 116.9 52.9123 116.704 53.1543 116.704C53.3964 116.704 53.5926 116.9 53.5926 117.142V118.895C53.5926 119.137 53.3964 119.333 53.1543 119.333C52.9123 119.333 52.716 119.137 52.716 118.895V117.142Z" fill="#9A7719"/>
<path fill-rule="evenodd" clip-rule="evenodd" d="M105.747 93.037C105.989 93.037 106.185 93.2332 106.185 93.4753C106.185 93.7173 105.989 93.9135 105.747 93.9135C105.505 93.9135 105.309 93.7173 105.309 93.4753C105.309 93.2332 105.505 93.037 105.747 93.037ZM103.556 96.1049C103.556 95.8628 103.359 95.6666 103.117 95.6666C102.875 95.6666 102.679 95.8628 102.679 96.1049V96.9814C102.679 97.2235 102.875 97.4197 103.117 97.4197C103.359 97.4197 103.556 97.2235 103.556 96.9814V96.1049ZM100.488 99.1728C100.73 99.1728 100.926 99.369 100.926 99.6111V100.488C100.926 100.73 100.73 100.926 100.488 100.926C100.246 100.926 100.049 100.73 100.049 100.488V99.6111C100.049 99.369 100.246 99.1728 100.488 99.1728ZM98.2963 102.241C98.2963 101.999 98.1001 101.802 97.858 101.802C97.616 101.802 97.4197 101.999 97.4197 102.241V103.117C97.4197 103.359 97.616 103.556 97.858 103.556C98.1001 103.556 98.2963 103.359 98.2963 103.117V102.241ZM95.2284 103.556C95.4704 103.556 95.6667 103.752 95.6667 103.994V105.747C95.6667 105.989 95.4704 106.185 95.2284 106.185C94.9863 106.185 94.7901 105.989 94.7901 105.747V103.994C94.7901 103.752 94.9863 103.556 95.2284 103.556ZM93.037 105.747C93.037 105.505 92.8408 105.309 92.5988 105.309C92.3567 105.309 92.1605 105.505 92.1605 105.747V107.5C92.1605 107.742 92.3567 107.938 92.5988 107.938C92.8408 107.938 93.037 107.742 93.037 107.5V105.747ZM89.9691 107.062C90.2112 107.062 90.4074 107.258 90.4074 107.5V109.253C90.4074 109.495 90.2112 109.691 89.9691 109.691C89.7271 109.691 89.5309 109.495 89.5309 109.253V107.5C89.5309 107.258 89.7271 107.062 89.9691 107.062ZM87.7778 109.253C87.7778 109.011 87.5816 108.815 87.3395 108.815C87.0975 108.815 86.9012 109.011 86.9012 109.253V111.006C86.9012 111.248 87.0975 111.444 87.3395 111.444C87.5816 111.444 87.7778 111.248 87.7778 111.006V109.253ZM84.7099 110.568C84.9519 110.568 85.1481 110.764 85.1481 111.006V112.759C85.1481 113.001 84.9519 113.197 84.7099 113.197C84.4678 113.197 84.2716 113.001 84.2716 112.759V111.006C84.2716 110.764 84.4678 110.568 84.7099 110.568ZM82.5185 111.883C82.5185 111.641 82.3223 111.444 82.0802 111.444C81.8382 111.444 81.642 111.641 81.642 111.883V114.512C81.642 114.754 81.8382 114.951 82.0802 114.951C82.3223 114.951 82.5185 114.754 82.5185 114.512V111.883ZM79.4506 112.321C79.6927 112.321 79.8889 112.517 79.8889 112.759V115.389C79.8889 115.631 79.6927 115.827 79.4506 115.827C79.2086 115.827 79.0123 115.631 79.0123 115.389V112.759C79.0123 112.517 79.2086 112.321 79.4506 112.321ZM77.2593 113.636C77.2593 113.394 77.063 113.197 76.821 113.197C76.5789 113.197 76.3827 113.394 76.3827 113.636V116.265C76.3827 116.507 76.5789 116.704 76.821 116.704C77.063 116.704 77.2593 116.507 77.2593 116.265V113.636ZM74.1914 114.074C74.4334 114.074 74.6296 114.27 74.6296 114.512V117.142C74.6296 117.384 74.4334 117.58 74.1914 117.58C73.9493 117.58 73.7531 117.384 73.7531 117.142V114.512C73.7531 114.27 73.9493 114.074 74.1914 114.074ZM72 115.389C72 115.147 71.8038 114.951 71.5617 114.951C71.3197 114.951 71.1235 115.147 71.1235 115.389V118.018C71.1235 118.261 71.3197 118.457 71.5617 118.457C71.8038 118.457 72 118.261 72 118.018V115.389ZM68.9321 115.827C69.1741 115.827 69.3704 116.023 69.3704 116.265V118.895C69.3704 119.137 69.1741 119.333 68.9321 119.333C68.69 119.333 68.4938 119.137 68.4938 118.895V116.265C68.4938 116.023 68.69 115.827 68.9321 115.827ZM66.7407 117.142C66.7407 116.9 66.5445 116.704 66.3025 116.704C66.0604 116.704 65.8642 116.9 65.8642 117.142V118.895C65.8642 119.137 66.0604 119.333 66.3025 119.333C66.5445 119.333 66.7407 119.137 66.7407 118.895V117.142ZM64.1111 117.142C64.1111 116.9 63.9149 116.704 63.6728 116.704C63.4308 116.704 63.2346 116.9 63.2346 117.142V119.772C63.2346 120.014 63.4308 120.21 63.6728 120.21C63.9149 120.21 64.1111 120.014 64.1111 119.772V117.142Z" fill="#9A7719"/>
<ellipse opacity="0.32301" cx="57.0988" cy="35.0895" rx="48.2099" ry="34.0895" fill="#FDE29A"/>
<path fill-rule="evenodd" clip-rule="evenodd" d="M45.1027 74.8636H57.9286H70.9519L79.0123 44.8271L61.7535 59.4577L57.9286 49.6378L54.3012 59.4577L36.9383 44.8271L45.1027 74.8636ZM70.9534 79.6789H45.1133V82.4253H70.9534V79.6789Z" fill="#EFB41F"/>
<ellipse cx="57.9753" cy="137.303" rx="34.1852" ry="5.69753" fill="#E8E8EE"/>
</svg>
